<mxfile host="65bd71144e">
    <diagram id="LU3jiyeO5NQYm-dhqzi3" name="Github-Auth">
        <mxGraphModel dx="1104" dy="528" grid="1" gridSize="10" guides="1" tooltips="1" connect="1" arrows="1" fold="1" page="1" pageScale="1" pageWidth="1100" pageHeight="850" math="0" shadow="0">
            <root>
                <mxCell id="0"/>
                <mxCell id="1" parent="0"/>
                <mxCell id="10" value="&lt;b style=&quot;font-size: 14px;&quot;&gt;GEP&lt;/b&gt;" style="rounded=1;whiteSpace=wrap;html=1;fillColor=none;dashed=1;labelPosition=center;verticalLabelPosition=top;align=center;verticalAlign=bottom;fontSize=14;" parent="1" vertex="1">
                    <mxGeometry x="530" y="185" width="260" height="480" as="geometry"/>
                </mxCell>
                <mxCell id="2" value="UI(Online IDE)" style="rounded=0;whiteSpace=wrap;html=1;align=center;labelPosition=center;verticalLabelPosition=top;verticalAlign=bottom;fillColor=#dae8fc;strokeColor=#6c8ebf;fontStyle=1" parent="1" vertex="1">
                    <mxGeometry x="560" y="512" width="200" height="120" as="geometry"/>
                </mxCell>
                <mxCell id="3" value="Github Auth Service" style="rounded=1;whiteSpace=wrap;html=1;" parent="1" vertex="1">
                    <mxGeometry x="580" y="527" width="160" height="40" as="geometry"/>
                </mxCell>
                <mxCell id="12" value="&lt;b style=&quot;font-size: 14px;&quot;&gt;Github&lt;/b&gt;" style="rounded=1;whiteSpace=wrap;html=1;fillColor=#e1d5e7;dashed=1;labelPosition=center;verticalLabelPosition=top;align=center;verticalAlign=bottom;strokeColor=#9673a6;fontSize=14;" parent="1" vertex="1">
                    <mxGeometry x="170" y="185" width="220" height="170" as="geometry"/>
                </mxCell>
                <mxCell id="19" value="" style="edgeStyle=none;html=1;startArrow=classic;startFill=1;entryX=0.5;entryY=1;entryDx=0;entryDy=0;" parent="1" source="4" target="14" edge="1">
                    <mxGeometry relative="1" as="geometry">
                        <mxPoint x="200" y="457" as="targetPoint"/>
                        <Array as="points">
                            <mxPoint x="280" y="597"/>
                        </Array>
                    </mxGeometry>
                </mxCell>
                <mxCell id="4" value="Github Service" style="rounded=1;whiteSpace=wrap;html=1;" parent="1" vertex="1">
                    <mxGeometry x="580" y="577" width="160" height="40" as="geometry"/>
                </mxCell>
                <mxCell id="17" value="" style="edgeStyle=none;html=1;entryX=1;entryY=0.5;entryDx=0;entryDy=0;startArrow=classic;startFill=1;" parent="1" source="5" target="3" edge="1">
                    <mxGeometry relative="1" as="geometry">
                        <mxPoint x="880" y="597" as="targetPoint"/>
                        <Array as="points">
                            <mxPoint x="840" y="317"/>
                            <mxPoint x="840" y="547"/>
                        </Array>
                    </mxGeometry>
                </mxCell>
                <mxCell id="22" value="Authorization" style="edgeLabel;html=1;align=center;verticalAlign=middle;resizable=0;points=[];" parent="17" vertex="1" connectable="0">
                    <mxGeometry x="-0.1187" y="1" relative="1" as="geometry">
                        <mxPoint as="offset"/>
                    </mxGeometry>
                </mxCell>
                <mxCell id="5" value="Microservice" style="rounded=0;whiteSpace=wrap;html=1;align=center;labelPosition=center;verticalLabelPosition=top;verticalAlign=bottom;fillColor=#f5f5f5;fontColor=#333333;strokeColor=#666666;fontStyle=1" parent="1" vertex="1">
                    <mxGeometry x="560" y="227" width="200" height="180" as="geometry"/>
                </mxCell>
                <mxCell id="7" value="Get Acess Token" style="rounded=1;whiteSpace=wrap;html=1;" parent="1" vertex="1">
                    <mxGeometry x="580" y="247" width="160" height="40" as="geometry"/>
                </mxCell>
                <mxCell id="21" value="" style="edgeStyle=none;html=1;startArrow=classic;startFill=1;entryX=1;entryY=0.5;entryDx=0;entryDy=0;exitX=0;exitY=0.5;exitDx=0;exitDy=0;" parent="1" source="5" target="13" edge="1">
                    <mxGeometry relative="1" as="geometry">
                        <mxPoint x="460" y="317" as="targetPoint"/>
                        <Array as="points">
                            <mxPoint x="470" y="317"/>
                            <mxPoint x="470" y="242"/>
                        </Array>
                    </mxGeometry>
                </mxCell>
                <mxCell id="23" value="Authorization" style="edgeLabel;html=1;align=center;verticalAlign=middle;resizable=0;points=[];" parent="21" vertex="1" connectable="0">
                    <mxGeometry x="0.0099" y="1" relative="1" as="geometry">
                        <mxPoint as="offset"/>
                    </mxGeometry>
                </mxCell>
                <mxCell id="8" value="Refresh Acess Token" style="rounded=1;whiteSpace=wrap;html=1;" parent="1" vertex="1">
                    <mxGeometry x="580" y="297" width="160" height="40" as="geometry"/>
                </mxCell>
                <mxCell id="9" value="Logout" style="rounded=1;whiteSpace=wrap;html=1;" parent="1" vertex="1">
                    <mxGeometry x="580" y="347" width="160" height="40" as="geometry"/>
                </mxCell>
                <mxCell id="13" value="OAuth API" style="rounded=1;whiteSpace=wrap;html=1;" parent="1" vertex="1">
                    <mxGeometry x="200" y="222" width="160" height="40" as="geometry"/>
                </mxCell>
                <mxCell id="14" value="Github REST API" style="rounded=1;whiteSpace=wrap;html=1;" parent="1" vertex="1">
                    <mxGeometry x="200" y="282" width="160" height="40" as="geometry"/>
                </mxCell>
                <mxCell id="25" value="&lt;ul style=&quot;font-size: 10px;&quot;&gt;&lt;li style=&quot;font-size: 10px;&quot;&gt;List all repositories&lt;/li&gt;&lt;li style=&quot;font-size: 10px;&quot;&gt;Load a repository&lt;/li&gt;&lt;li style=&quot;font-size: 10px;&quot;&gt;Load all branches&lt;/li&gt;&lt;li style=&quot;font-size: 10px;&quot;&gt;List files&lt;/li&gt;&lt;li style=&quot;font-size: 10px;&quot;&gt;Load resource&lt;/li&gt;&lt;li style=&quot;font-size: 10px;&quot;&gt;Commit a change&lt;/li&gt;&lt;li style=&quot;font-size: 10px;&quot;&gt;Create pull request&lt;/li&gt;&lt;li style=&quot;font-size: 10px;&quot;&gt;List pull requests&lt;/li&gt;&lt;li style=&quot;font-size: 10px;&quot;&gt;Approve pull request&lt;/li&gt;&lt;li style=&quot;font-size: 10px;&quot;&gt;Cancel pull request&lt;/li&gt;&lt;li style=&quot;font-size: 10px;&quot;&gt;...&lt;/li&gt;&lt;/ul&gt;" style="text;html=1;align=left;verticalAlign=middle;resizable=0;points=[];autosize=1;strokeColor=none;fillColor=none;fontSize=10;fontColor=#3399FF;" parent="1" vertex="1">
                    <mxGeometry x="260" y="377" width="160" height="230" as="geometry"/>
                </mxCell>
            </root>
        </mxGraphModel>
    </diagram>
    <diagram id="gv8eqT34sGzRQq_cghJO" name="Pull Request">
        <mxGraphModel dx="1104" dy="528" grid="1" gridSize="10" guides="1" tooltips="1" connect="1" arrows="1" fold="1" page="1" pageScale="1" pageWidth="1100" pageHeight="850" math="0" shadow="0">
            <root>
                <mxCell id="0"/>
                <mxCell id="1" parent="0"/>
                <mxCell id="MDaa6uVFMHVMhbvxZp8q-1" value="Compare" style="rounded=1;fillColor=none;strokeColor=none;html=1;fontColor=#596780;align=left;fontSize=11;spacingLeft=10;fontSize=11;sketch=1;hachureGap=4;pointerEvents=0;fontFamily=Architects Daughter;fontSource=https%3A%2F%2Ffonts.googleapis.com%2Fcss%3Ffamily%3DArchitects%2BDaughter;" vertex="1" parent="1">
                    <mxGeometry x="280" y="70" width="100" height="20" as="geometry"/>
                </mxCell>
                <mxCell id="MDaa6uVFMHVMhbvxZp8q-2" value="Branches" style="rounded=1;fillColor=#253858;strokeColor=none;html=1;fontColor=#ffffff;align=left;fontSize=12;spacingLeft=10;sketch=0;hachureGap=4;pointerEvents=0;fontFamily=Architects Daughter;fontSource=https%3A%2F%2Ffonts.googleapis.com%2Fcss%3Ffamily%3DArchitects%2BDaughter;" vertex="1" parent="1">
                    <mxGeometry x="280" y="90" width="100" height="33" as="geometry"/>
                </mxCell>
                <mxCell id="MDaa6uVFMHVMhbvxZp8q-3" value="" style="shape=triangle;direction=south;fillColor=#ffffff;strokeColor=none;html=1;sketch=1;hachureGap=4;pointerEvents=0;fontFamily=Architects Daughter;fontSource=https%3A%2F%2Ffonts.googleapis.com%2Fcss%3Ffamily%3DArchitects%2BDaughter;fontSize=20;" vertex="1" parent="MDaa6uVFMHVMhbvxZp8q-2">
                    <mxGeometry x="1" y="0.5" width="12" height="6" relative="1" as="geometry">
                        <mxPoint x="-20" y="-3" as="offset"/>
                    </mxGeometry>
                </mxCell>
                <mxCell id="MDaa6uVFMHVMhbvxZp8q-4" value="" style="rounded=1;fillColor=#ffffff;strokeColor=#DFE1E5;shadow=1;html=1;arcSize=4;sketch=1;hachureGap=4;pointerEvents=0;fontFamily=Architects Daughter;fontSource=https%3A%2F%2Ffonts.googleapis.com%2Fcss%3Ffamily%3DArchitects%2BDaughter;fontSize=20;" vertex="1" parent="1">
                    <mxGeometry x="280" y="126" width="130" height="144" as="geometry"/>
                </mxCell>
                <mxCell id="MDaa6uVFMHVMhbvxZp8q-5" value="Feature branch 1" style="rounded=0;fillColor=#F4F5F7;strokeColor=none;shadow=0;html=1;align=left;fontSize=12;spacingLeft=10;fontColor=#253858;resizeWidth=1;sketch=1;hachureGap=4;pointerEvents=0;fontFamily=Architects Daughter;fontSource=https%3A%2F%2Ffonts.googleapis.com%2Fcss%3Ffamily%3DArchitects%2BDaughter;" vertex="1" parent="MDaa6uVFMHVMhbvxZp8q-4">
                    <mxGeometry width="130" height="33" relative="1" as="geometry">
                        <mxPoint y="6" as="offset"/>
                    </mxGeometry>
                </mxCell>
                <mxCell id="MDaa6uVFMHVMhbvxZp8q-6" value="Feature branch 2" style="rounded=0;fillColor=none;strokeColor=none;shadow=0;html=1;align=left;fontSize=12;spacingLeft=10;fontColor=#253858;resizeWidth=1;sketch=1;hachureGap=4;pointerEvents=0;fontFamily=Architects Daughter;fontSource=https%3A%2F%2Ffonts.googleapis.com%2Fcss%3Ffamily%3DArchitects%2BDaughter;" vertex="1" parent="MDaa6uVFMHVMhbvxZp8q-4">
                    <mxGeometry width="130" height="33" relative="1" as="geometry">
                        <mxPoint y="39" as="offset"/>
                    </mxGeometry>
                </mxCell>
                <mxCell id="MDaa6uVFMHVMhbvxZp8q-7" value="Feature branch 3" style="rounded=0;fillColor=none;strokeColor=none;shadow=0;html=1;align=left;fontSize=12;spacingLeft=10;fontColor=#253858;resizeWidth=1;sketch=1;hachureGap=4;pointerEvents=0;fontFamily=Architects Daughter;fontSource=https%3A%2F%2Ffonts.googleapis.com%2Fcss%3Ffamily%3DArchitects%2BDaughter;" vertex="1" parent="MDaa6uVFMHVMhbvxZp8q-4">
                    <mxGeometry width="130" height="33" relative="1" as="geometry">
                        <mxPoint y="72" as="offset"/>
                    </mxGeometry>
                </mxCell>
                <mxCell id="MDaa6uVFMHVMhbvxZp8q-8" value="Feature branch 4" style="rounded=0;fillColor=none;strokeColor=none;shadow=0;html=1;align=left;fontSize=12;spacingLeft=10;fontColor=#253858;resizeWidth=1;sketch=1;hachureGap=4;pointerEvents=0;fontFamily=Architects Daughter;fontSource=https%3A%2F%2Ffonts.googleapis.com%2Fcss%3Ffamily%3DArchitects%2BDaughter;" vertex="1" parent="MDaa6uVFMHVMhbvxZp8q-4">
                    <mxGeometry width="130" height="33" relative="1" as="geometry">
                        <mxPoint y="105" as="offset"/>
                    </mxGeometry>
                </mxCell>
                <mxCell id="MDaa6uVFMHVMhbvxZp8q-9" value="Base" style="rounded=1;fillColor=none;strokeColor=none;html=1;fontColor=#596780;align=left;fontSize=11;spacingLeft=10;fontSize=11;sketch=1;hachureGap=4;pointerEvents=0;fontFamily=Architects Daughter;fontSource=https%3A%2F%2Ffonts.googleapis.com%2Fcss%3Ffamily%3DArchitects%2BDaughter;" vertex="1" parent="1">
                    <mxGeometry x="120" y="70" width="100" height="20" as="geometry"/>
                </mxCell>
                <mxCell id="MDaa6uVFMHVMhbvxZp8q-10" value="Branches" style="rounded=1;fillColor=#253858;strokeColor=none;html=1;fontColor=#ffffff;align=left;fontSize=12;spacingLeft=10;sketch=0;hachureGap=4;pointerEvents=0;fontFamily=Architects Daughter;fontSource=https%3A%2F%2Ffonts.googleapis.com%2Fcss%3Ffamily%3DArchitects%2BDaughter;" vertex="1" parent="1">
                    <mxGeometry x="120" y="90" width="100" height="33" as="geometry"/>
                </mxCell>
                <mxCell id="MDaa6uVFMHVMhbvxZp8q-11" value="" style="shape=triangle;direction=south;fillColor=#ffffff;strokeColor=none;html=1;sketch=1;hachureGap=4;pointerEvents=0;fontFamily=Architects Daughter;fontSource=https%3A%2F%2Ffonts.googleapis.com%2Fcss%3Ffamily%3DArchitects%2BDaughter;fontSize=20;" vertex="1" parent="MDaa6uVFMHVMhbvxZp8q-10">
                    <mxGeometry x="1" y="0.5" width="12" height="6" relative="1" as="geometry">
                        <mxPoint x="-20" y="-3" as="offset"/>
                    </mxGeometry>
                </mxCell>
                <mxCell id="MDaa6uVFMHVMhbvxZp8q-12" value="" style="rounded=1;fillColor=#ffffff;strokeColor=#DFE1E5;shadow=1;html=1;arcSize=4;sketch=1;hachureGap=4;pointerEvents=0;fontFamily=Architects Daughter;fontSource=https%3A%2F%2Ffonts.googleapis.com%2Fcss%3Ffamily%3DArchitects%2BDaughter;fontSize=20;" vertex="1" parent="1">
                    <mxGeometry x="120" y="126" width="130" height="144" as="geometry"/>
                </mxCell>
                <mxCell id="MDaa6uVFMHVMhbvxZp8q-13" value="Main" style="rounded=0;fillColor=#F4F5F7;strokeColor=none;shadow=0;html=1;align=left;fontSize=12;spacingLeft=10;fontColor=#253858;resizeWidth=1;sketch=1;hachureGap=4;pointerEvents=0;fontFamily=Architects Daughter;fontSource=https%3A%2F%2Ffonts.googleapis.com%2Fcss%3Ffamily%3DArchitects%2BDaughter;" vertex="1" parent="MDaa6uVFMHVMhbvxZp8q-12">
                    <mxGeometry width="130" height="33" relative="1" as="geometry">
                        <mxPoint y="6" as="offset"/>
                    </mxGeometry>
                </mxCell>
                <mxCell id="MDaa6uVFMHVMhbvxZp8q-14" value="Development" style="rounded=0;fillColor=none;strokeColor=none;shadow=0;html=1;align=left;fontSize=12;spacingLeft=10;fontColor=#253858;resizeWidth=1;sketch=1;hachureGap=4;pointerEvents=0;fontFamily=Architects Daughter;fontSource=https%3A%2F%2Ffonts.googleapis.com%2Fcss%3Ffamily%3DArchitects%2BDaughter;" vertex="1" parent="MDaa6uVFMHVMhbvxZp8q-12">
                    <mxGeometry width="130" height="33" relative="1" as="geometry">
                        <mxPoint y="39" as="offset"/>
                    </mxGeometry>
                </mxCell>
                <mxCell id="MDaa6uVFMHVMhbvxZp8q-15" value="V3" style="rounded=0;fillColor=none;strokeColor=none;shadow=0;html=1;align=left;fontSize=12;spacingLeft=10;fontColor=#253858;resizeWidth=1;sketch=1;hachureGap=4;pointerEvents=0;fontFamily=Architects Daughter;fontSource=https%3A%2F%2Ffonts.googleapis.com%2Fcss%3Ffamily%3DArchitects%2BDaughter;" vertex="1" parent="MDaa6uVFMHVMhbvxZp8q-12">
                    <mxGeometry width="130" height="33" relative="1" as="geometry">
                        <mxPoint y="72" as="offset"/>
                    </mxGeometry>
                </mxCell>
                <mxCell id="MDaa6uVFMHVMhbvxZp8q-16" value="V3.x" style="rounded=0;fillColor=none;strokeColor=none;shadow=0;html=1;align=left;fontSize=12;spacingLeft=10;fontColor=#253858;resizeWidth=1;sketch=1;hachureGap=4;pointerEvents=0;fontFamily=Architects Daughter;fontSource=https%3A%2F%2Ffonts.googleapis.com%2Fcss%3Ffamily%3DArchitects%2BDaughter;" vertex="1" parent="MDaa6uVFMHVMhbvxZp8q-12">
                    <mxGeometry width="130" height="33" relative="1" as="geometry">
                        <mxPoint y="105" as="offset"/>
                    </mxGeometry>
                </mxCell>
                <mxCell id="MDaa6uVFMHVMhbvxZp8q-17" value="Create pull request" style="html=1;shadow=0;dashed=0;shape=mxgraph.bootstrap.rrect;rSize=5;strokeColor=none;strokeWidth=1;fillColor=#0085FC;fontColor=#FFFFFF;whiteSpace=wrap;align=center;verticalAlign=middle;spacingLeft=0;fontStyle=0;fontSize=16;spacing=5;" vertex="1" parent="1">
                    <mxGeometry x="450" y="90" width="170" height="33" as="geometry"/>
                </mxCell>
                <mxCell id="MDaa6uVFMHVMhbvxZp8q-28" value="Create pull request&lt;br&gt;&lt;font style=&quot;font-size: 12px;&quot;&gt;Unable to merge&lt;/font&gt;" style="html=1;shadow=0;dashed=0;shape=mxgraph.bootstrap.rrect;rSize=5;strokeColor=none;strokeWidth=1;fillColor=#b0b3b5;fontColor=#FFFFFF;whiteSpace=wrap;align=center;verticalAlign=middle;spacingLeft=0;fontStyle=0;fontSize=16;spacing=5;" vertex="1" parent="1">
                    <mxGeometry x="450" y="130" width="170" height="50" as="geometry"/>
                </mxCell>
            </root>
        </mxGraphModel>
    </diagram>
</mxfile>